<mxfile host="app.diagrams.net" agent="Mozilla/5.0 (X11; Linux x86_64) AppleWebKit/537.36 (KHTML, like Gecko) Chrome/130.0.0.0 Safari/537.36" version="28.2.0">
  <diagram name="Page-1" id="49bBgT2Ui1bWRUErYhT3">
    <mxGraphModel dx="762" dy="437" grid="0" gridSize="10" guides="1" tooltips="1" connect="1" arrows="1" fold="1" page="0" pageScale="1" pageWidth="850" pageHeight="1100" math="0" shadow="0">
      <root>
        <mxCell id="0" />
        <mxCell id="1" parent="0" />
        <mxCell id="S2XN-2ifg8CLVUUL8ncL-5" style="edgeStyle=orthogonalEdgeStyle;rounded=0;orthogonalLoop=1;jettySize=auto;html=1;" edge="1" parent="1" source="S2XN-2ifg8CLVUUL8ncL-1" target="S2XN-2ifg8CLVUUL8ncL-4">
          <mxGeometry relative="1" as="geometry" />
        </mxCell>
        <mxCell id="S2XN-2ifg8CLVUUL8ncL-6" style="edgeStyle=orthogonalEdgeStyle;rounded=0;orthogonalLoop=1;jettySize=auto;html=1;" edge="1" parent="1" source="S2XN-2ifg8CLVUUL8ncL-1" target="S2XN-2ifg8CLVUUL8ncL-2">
          <mxGeometry relative="1" as="geometry" />
        </mxCell>
        <mxCell id="S2XN-2ifg8CLVUUL8ncL-8" style="edgeStyle=orthogonalEdgeStyle;rounded=0;orthogonalLoop=1;jettySize=auto;html=1;exitX=0;exitY=0;exitDx=0;exitDy=0;entryX=1;entryY=1;entryDx=0;entryDy=0;" edge="1" parent="1" source="S2XN-2ifg8CLVUUL8ncL-1" target="S2XN-2ifg8CLVUUL8ncL-3">
          <mxGeometry relative="1" as="geometry" />
        </mxCell>
        <mxCell id="S2XN-2ifg8CLVUUL8ncL-1" value="ClientePQR" style="whiteSpace=wrap;html=1;align=center;" vertex="1" parent="1">
          <mxGeometry x="380" y="175" width="100" height="40" as="geometry" />
        </mxCell>
        <mxCell id="S2XN-2ifg8CLVUUL8ncL-2" value="pqrId" style="ellipse;whiteSpace=wrap;html=1;align=center;fontStyle=4;" vertex="1" parent="1">
          <mxGeometry x="380" y="85" width="100" height="40" as="geometry" />
        </mxCell>
        <mxCell id="S2XN-2ifg8CLVUUL8ncL-3" value="description" style="ellipse;whiteSpace=wrap;html=1;align=center;" vertex="1" parent="1">
          <mxGeometry x="262" y="106" width="100" height="40" as="geometry" />
        </mxCell>
        <mxCell id="S2XN-2ifg8CLVUUL8ncL-4" value="status" style="ellipse;whiteSpace=wrap;html=1;align=center;" vertex="1" parent="1">
          <mxGeometry x="239" y="175" width="100" height="40" as="geometry" />
        </mxCell>
        <mxCell id="S2XN-2ifg8CLVUUL8ncL-23" style="edgeStyle=orthogonalEdgeStyle;rounded=0;orthogonalLoop=1;jettySize=auto;html=1;" edge="1" parent="1" source="S2XN-2ifg8CLVUUL8ncL-9" target="S2XN-2ifg8CLVUUL8ncL-18">
          <mxGeometry relative="1" as="geometry" />
        </mxCell>
        <mxCell id="S2XN-2ifg8CLVUUL8ncL-24" style="edgeStyle=orthogonalEdgeStyle;rounded=0;orthogonalLoop=1;jettySize=auto;html=1;exitX=0;exitY=1;exitDx=0;exitDy=0;entryX=1;entryY=0;entryDx=0;entryDy=0;" edge="1" parent="1" source="S2XN-2ifg8CLVUUL8ncL-9" target="S2XN-2ifg8CLVUUL8ncL-22">
          <mxGeometry relative="1" as="geometry" />
        </mxCell>
        <mxCell id="S2XN-2ifg8CLVUUL8ncL-25" style="edgeStyle=orthogonalEdgeStyle;rounded=0;orthogonalLoop=1;jettySize=auto;html=1;exitX=0;exitY=0.5;exitDx=0;exitDy=0;" edge="1" parent="1" source="S2XN-2ifg8CLVUUL8ncL-9" target="S2XN-2ifg8CLVUUL8ncL-20">
          <mxGeometry relative="1" as="geometry" />
        </mxCell>
        <mxCell id="S2XN-2ifg8CLVUUL8ncL-9" value="RepreVentas" style="whiteSpace=wrap;html=1;align=center;" vertex="1" parent="1">
          <mxGeometry x="380" y="400" width="100" height="40" as="geometry" />
        </mxCell>
        <mxCell id="S2XN-2ifg8CLVUUL8ncL-10" value="" style="endArrow=none;html=1;rounded=0;exitX=0.5;exitY=1;exitDx=0;exitDy=0;entryX=0.5;entryY=0;entryDx=0;entryDy=0;" edge="1" parent="1" source="S2XN-2ifg8CLVUUL8ncL-12" target="S2XN-2ifg8CLVUUL8ncL-9">
          <mxGeometry relative="1" as="geometry">
            <mxPoint x="388" y="316" as="sourcePoint" />
            <mxPoint x="548" y="316" as="targetPoint" />
            <Array as="points" />
          </mxGeometry>
        </mxCell>
        <mxCell id="S2XN-2ifg8CLVUUL8ncL-11" value="N" style="resizable=0;html=1;whiteSpace=wrap;align=right;verticalAlign=bottom;" connectable="0" vertex="1" parent="S2XN-2ifg8CLVUUL8ncL-10">
          <mxGeometry x="1" relative="1" as="geometry" />
        </mxCell>
        <mxCell id="S2XN-2ifg8CLVUUL8ncL-12" value="Attend PQR" style="shape=rhombus;perimeter=rhombusPerimeter;whiteSpace=wrap;html=1;align=center;" vertex="1" parent="1">
          <mxGeometry x="370" y="277" width="120" height="60" as="geometry" />
        </mxCell>
        <mxCell id="S2XN-2ifg8CLVUUL8ncL-15" value="" style="endArrow=none;html=1;rounded=0;entryX=0.5;entryY=1;entryDx=0;entryDy=0;" edge="1" parent="1" source="S2XN-2ifg8CLVUUL8ncL-12" target="S2XN-2ifg8CLVUUL8ncL-1">
          <mxGeometry relative="1" as="geometry">
            <mxPoint x="277" y="368" as="sourcePoint" />
            <mxPoint x="283" y="277" as="targetPoint" />
          </mxGeometry>
        </mxCell>
        <mxCell id="S2XN-2ifg8CLVUUL8ncL-16" value="1" style="resizable=0;html=1;whiteSpace=wrap;align=right;verticalAlign=bottom;" connectable="0" vertex="1" parent="S2XN-2ifg8CLVUUL8ncL-15">
          <mxGeometry x="1" relative="1" as="geometry">
            <mxPoint x="-3" y="21" as="offset" />
          </mxGeometry>
        </mxCell>
        <mxCell id="S2XN-2ifg8CLVUUL8ncL-18" value="repreVentasId" style="ellipse;whiteSpace=wrap;html=1;align=center;fontStyle=4;" vertex="1" parent="1">
          <mxGeometry x="380" y="477" width="100" height="40" as="geometry" />
        </mxCell>
        <mxCell id="S2XN-2ifg8CLVUUL8ncL-19" value="charge" style="ellipse;whiteSpace=wrap;html=1;align=center;" vertex="1" parent="1">
          <mxGeometry x="282" y="345" width="100" height="40" as="geometry" />
        </mxCell>
        <mxCell id="S2XN-2ifg8CLVUUL8ncL-20" value="address" style="ellipse;whiteSpace=wrap;html=1;align=center;" vertex="1" parent="1">
          <mxGeometry x="232" y="400" width="100" height="40" as="geometry" />
        </mxCell>
        <mxCell id="S2XN-2ifg8CLVUUL8ncL-22" value="name" style="ellipse;whiteSpace=wrap;html=1;align=center;" vertex="1" parent="1">
          <mxGeometry x="270" y="454" width="100" height="40" as="geometry" />
        </mxCell>
        <mxCell id="S2XN-2ifg8CLVUUL8ncL-26" style="edgeStyle=orthogonalEdgeStyle;rounded=0;orthogonalLoop=1;jettySize=auto;html=1;exitX=0;exitY=0;exitDx=0;exitDy=0;entryX=0.84;entryY=0.908;entryDx=0;entryDy=0;entryPerimeter=0;" edge="1" parent="1" source="S2XN-2ifg8CLVUUL8ncL-9" target="S2XN-2ifg8CLVUUL8ncL-19">
          <mxGeometry relative="1" as="geometry" />
        </mxCell>
      </root>
    </mxGraphModel>
  </diagram>
</mxfile>
